<svg xmlns="http://www.w3.org/2000/svg" width="1040" height="1134" viewBox="0 0 1040 1134" role="img" aria-labelledby="pt pd">
<title id="pt">CHI Ecosystem — engineering metrics</title>
<desc id="pd">CHI Ecosystem engineering pulse: 9 active repositories plus 75 archived, 3,339 releases, 21,143 commits in the last 12 months (peak 1,471 per week, including chi-archives history), 6,386 merged pull requests. CHI is the operating system for events — cashless payments, smart ticketing, crew management and real-time analytics for festivals and venues.</desc>
<defs>
<linearGradient id="flow" x1="0" y1="0" x2="1040" y2="0" gradientUnits="userSpaceOnUse">
  <stop offset="0" stop-color="#E83C70"/><stop offset="1" stop-color="#9D4EDD"/>
</linearGradient>
<linearGradient id="card" x1="0" y1="0" x2="0" y2="1">
  <stop offset="0" stop-color="#221527"/><stop offset="1" stop-color="#140d18"/>
</linearGradient>
<linearGradient id="num" x1="0" y1="0" x2="1" y2="0">
  <stop offset="0" stop-color="#E83C70"/><stop offset="1" stop-color="#9D4EDD"/>
</linearGradient>
<linearGradient id="area" x1="0" y1="0" x2="0" y2="1">
  <stop offset="0" stop-color="#E83C70" stop-opacity="0.35"/><stop offset="1" stop-color="#9D4EDD" stop-opacity="0.02"/>
</linearGradient>
</defs>
<rect x="24.0" y="24" width="233.0" height="104" rx="16" fill="url(#card)" stroke="url(#flow)" stroke-opacity="0.65" stroke-width="1.4"/>
<g transform="translate(44.0,42) scale(0.917)"><g fill="none" stroke="#E83C70" stroke-linecap="round" stroke-linejoin="round" stroke-width="2"><path d="M21 8a2 2 0 0 0-1-1.73l-7-4a2 2 0 0 0-2 0l-7 4A2 2 0 0 0 3 8v8a2 2 0 0 0 1 1.73l7 4a2 2 0 0 0 2 0l7-4A2 2 0 0 0 21 16Z"/><path d="m3.3 7l8.7 5l8.7-5M12 22V12"/></g></g>
<text x="44.0" y="98" fill="url(#num)" font-family="-apple-system,'Segoe UI',Helvetica,Arial,sans-serif" font-size="34" font-weight="700">9</text>
<text x="44.0" y="116" fill="#9aa4af" font-family="-apple-system,'Segoe UI',Helvetica,Arial,sans-serif" font-size="12.5">active repositories · +75 archived</text>
<rect x="277.0" y="24" width="233.0" height="104" rx="16" fill="url(#card)" stroke="url(#flow)" stroke-opacity="0.65" stroke-width="1.4"/>
<g transform="translate(297.0,42) scale(0.917)"><g fill="none" stroke="#E83C70" stroke-linecap="round" stroke-linejoin="round" stroke-width="2"><path d="M12.586 2.586A2 2 0 0 0 11.172 2H4a2 2 0 0 0-2 2v7.172a2 2 0 0 0 .586 1.414l8.704 8.704a2.426 2.426 0 0 0 3.42 0l6.58-6.58a2.426 2.426 0 0 0 0-3.42z"/><circle cx="7.5" cy="7.5" r=".5" fill="#E83C70"/></g></g>
<text x="297.0" y="98" fill="url(#num)" font-family="-apple-system,'Segoe UI',Helvetica,Arial,sans-serif" font-size="34" font-weight="700">3,339</text>
<text x="297.0" y="116" fill="#9aa4af" font-family="-apple-system,'Segoe UI',Helvetica,Arial,sans-serif" font-size="12.5">releases shipped · +83 archived</text>
<rect x="530.0" y="24" width="233.0" height="104" rx="16" fill="url(#card)" stroke="url(#flow)" stroke-opacity="0.65" stroke-width="1.4"/>
<g transform="translate(550.0,42) scale(0.917)"><g fill="none" stroke="#E83C70" stroke-linecap="round" stroke-linejoin="round" stroke-width="2"><circle cx="12" cy="12" r="3"/><path d="M3 12h6m6 0h6"/></g></g>
<text x="550.0" y="98" fill="url(#num)" font-family="-apple-system,'Segoe UI',Helvetica,Arial,sans-serif" font-size="34" font-weight="700">19.2k</text>
<text x="550.0" y="116" fill="#9aa4af" font-family="-apple-system,'Segoe UI',Helvetica,Arial,sans-serif" font-size="12.5">commits · 12 mo · +1,928 archived</text>
<rect x="783.0" y="24" width="233.0" height="104" rx="16" fill="url(#card)" stroke="url(#flow)" stroke-opacity="0.65" stroke-width="1.4"/>
<g transform="translate(803.0,42) scale(0.917)"><g fill="none" stroke="#E83C70" stroke-linecap="round" stroke-linejoin="round" stroke-width="2"><circle cx="18" cy="18" r="3"/><circle cx="6" cy="6" r="3"/><path d="M6 21V9a9 9 0 0 0 9 9"/></g></g>
<text x="803.0" y="98" fill="url(#num)" font-family="-apple-system,'Segoe UI',Helvetica,Arial,sans-serif" font-size="34" font-weight="700">6,386</text>
<text x="803.0" y="116" fill="#9aa4af" font-family="-apple-system,'Segoe UI',Helvetica,Arial,sans-serif" font-size="12.5">merged PRs · +3,776 archived</text>
<rect x="24" y="148" width="486.0" height="128" rx="16" fill="url(#card)" stroke="url(#flow)" stroke-opacity="0.65" stroke-width="1.4"/>
<g transform="translate(44,166) scale(0.750)"><g fill="none" stroke="#E83C70" stroke-linecap="round" stroke-linejoin="round" stroke-width="2"><circle cx="12" cy="12" r="10"/><circle cx="12" cy="12" r="1"/></g></g>
<text x="70" y="181" fill="#e6edf3" font-family="-apple-system,'Segoe UI',Helvetica,Arial,sans-serif" font-size="15" font-weight="600">Issues</text>
<text x="490.0" y="181" text-anchor="end" fill="#9aa4af" font-family="-apple-system,'Segoe UI',Helvetica,Arial,sans-serif" font-size="12.5">2,625 total</text>
<rect x="44" y="204" width="446.0" height="12" rx="6.0" fill="#2c1f33"/><clipPath id="clip44204"><rect x="44" y="204" width="446.0" height="12" rx="6.0"/></clipPath><g clip-path="url(#clip44204)"><rect x="44.0" y="204" width="11.9" height="12" fill="#E83C70"/><rect x="55.9" y="204" width="76.3" height="12" fill="#9D4EDD"/><rect x="132.2" y="204" width="357.8" height="12" fill="#6e7681"/></g>
<circle cx="50" cy="244" r="4" fill="#E83C70"/><text x="60" y="248" fill="#9aa4af" font-family="-apple-system,'Segoe UI',Helvetica,Arial,sans-serif" font-size="12.5">70 open</text>
<circle cx="140" cy="244" r="4" fill="#9D4EDD"/><text x="150" y="248" fill="#9aa4af" font-family="-apple-system,'Segoe UI',Helvetica,Arial,sans-serif" font-size="12.5">449 closed</text>
<circle cx="240" cy="244" r="4" fill="#6e7681"/><text x="250" y="248" fill="#9aa4af" font-family="-apple-system,'Segoe UI',Helvetica,Arial,sans-serif" font-size="12.5">2,106 archived</text>
<rect x="530.0" y="148" width="486.0" height="128" rx="16" fill="url(#card)" stroke="url(#flow)" stroke-opacity="0.65" stroke-width="1.4"/>
<g transform="translate(550.0,166) scale(0.750)"><g fill="none" stroke="#E83C70" stroke-linecap="round" stroke-linejoin="round" stroke-width="2"><circle cx="18" cy="18" r="3"/><circle cx="6" cy="6" r="3"/><path d="M13 6h3a2 2 0 0 1 2 2v7M6 9v12"/></g></g>
<text x="576.0" y="181" fill="#e6edf3" font-family="-apple-system,'Segoe UI',Helvetica,Arial,sans-serif" font-size="15" font-weight="600">Pull requests</text>
<text x="996.0" y="181" text-anchor="end" fill="#9aa4af" font-family="-apple-system,'Segoe UI',Helvetica,Arial,sans-serif" font-size="12.5">6,772 total</text>
<rect x="550.0" y="204" width="446.0" height="12" rx="6.0" fill="#2c1f33"/><clipPath id="clip550.0204"><rect x="550.0" y="204" width="446.0" height="12" rx="6.0"/></clipPath><g clip-path="url(#clip550.0204)"><rect x="550.0" y="204" width="420.6" height="12" fill="#9D4EDD"/><rect x="970.6" y="204" width="0.7" height="12" fill="#E83C70"/><rect x="971.3" y="204" width="24.7" height="12" fill="#6e7681"/></g>
<circle cx="556.0" cy="244" r="4" fill="#9D4EDD"/><text x="566.0" y="248" fill="#9aa4af" font-family="-apple-system,'Segoe UI',Helvetica,Arial,sans-serif" font-size="12.5">6,386 merged</text>
<circle cx="666.0" cy="244" r="4" fill="#E83C70"/><text x="676.0" y="248" fill="#9aa4af" font-family="-apple-system,'Segoe UI',Helvetica,Arial,sans-serif" font-size="12.5">11 open</text>
<circle cx="766.0" cy="244" r="4" fill="#6e7681"/><text x="776.0" y="248" fill="#9aa4af" font-family="-apple-system,'Segoe UI',Helvetica,Arial,sans-serif" font-size="12.5">375 closed</text>
<rect x="24" y="296" width="992" height="176" rx="16" fill="url(#card)" stroke="url(#flow)" stroke-opacity="0.65" stroke-width="1.4"/>
<g transform="translate(44,312) scale(0.750)"><path fill="none" stroke="#E83C70" stroke-linecap="round" stroke-linejoin="round" stroke-width="2" d="m18 16l4-4l-4-4M6 8l-4 4l4 4m8.5-12l-5 16"/></g>
<text x="70" y="327" fill="#e6edf3" font-family="-apple-system,'Segoe UI',Helvetica,Arial,sans-serif" font-size="15" font-weight="600">Languages</text>
<text x="996" y="327" text-anchor="end" fill="#9aa4af" font-family="-apple-system,'Segoe UI',Helvetica,Arial,sans-serif" font-size="12.5">across 9 active + 75 archived repositories</text>
<text x="44" y="348" fill="#9aa4af" font-family="-apple-system,'Segoe UI',Helvetica,Arial,sans-serif" font-size="11" font-weight="600" letter-spacing="0.08em">ACTIVE</text>
<rect x="44" y="356" width="952" height="12" rx="6.0" fill="#2c1f33"/><clipPath id="clip44356"><rect x="44" y="356" width="952" height="12" rx="6.0"/></clipPath><g clip-path="url(#clip44356)"><rect x="44.0" y="356" width="875.0" height="12" fill="#3178c6"/><rect x="919.0" y="356" width="39.4" height="12" fill="#3572A5"/><rect x="958.5" y="356" width="16.6" height="12" fill="#89e051"/><rect x="975.1" y="356" width="20.9" height="12" fill="#6e7681"/></g>
<circle cx="49" cy="388" r="4" fill="#3178c6"/>
<text x="59" y="392" fill="#9aa4af" font-family="-apple-system,'Segoe UI',Helvetica,Arial,sans-serif" font-size="12.5">TypeScript 92%</text>
<circle cx="186.8" cy="388" r="4" fill="#3572A5"/>
<text x="196.8" y="392" fill="#9aa4af" font-family="-apple-system,'Segoe UI',Helvetica,Arial,sans-serif" font-size="12.5">Python 4%</text>
<circle cx="288.6" cy="388" r="4" fill="#89e051"/>
<text x="298.6" y="392" fill="#9aa4af" font-family="-apple-system,'Segoe UI',Helvetica,Arial,sans-serif" font-size="12.5">Shell 2%</text>
<circle cx="383.20000000000005" cy="388" r="4" fill="#6e7681"/>
<text x="393.20000000000005" y="392" fill="#9aa4af" font-family="-apple-system,'Segoe UI',Helvetica,Arial,sans-serif" font-size="12.5">Other 2%</text>
<text x="44" y="414" fill="#9aa4af" font-family="-apple-system,'Segoe UI',Helvetica,Arial,sans-serif" font-size="11" font-weight="600" letter-spacing="0.08em">ARCHIVED</text>
<rect x="44" y="422" width="952" height="12" rx="6.0" fill="#2c1f33"/><clipPath id="clip44422"><rect x="44" y="422" width="952" height="12" rx="6.0"/></clipPath><g clip-path="url(#clip44422)"><rect x="44.0" y="422" width="568.7" height="12" fill="#3178c6"/><rect x="612.7" y="422" width="213.0" height="12" fill="#f1e05a"/><rect x="825.6" y="422" width="95.2" height="12" fill="#663399"/><rect x="920.8" y="422" width="26.6" height="12" fill="#844FBA"/><rect x="947.5" y="422" width="13.8" height="12" fill="#3572A5"/><rect x="961.2" y="422" width="11.4" height="12" fill="#5886E1"/><rect x="972.6" y="422" width="23.4" height="12" fill="#6e7681"/></g>
<circle cx="49" cy="454" r="4" fill="#3178c6"/>
<text x="59" y="458" fill="#9aa4af" font-family="-apple-system,'Segoe UI',Helvetica,Arial,sans-serif" font-size="12.5">TypeScript 60%</text>
<circle cx="186.8" cy="454" r="4" fill="#f1e05a"/>
<text x="196.8" y="458" fill="#9aa4af" font-family="-apple-system,'Segoe UI',Helvetica,Arial,sans-serif" font-size="12.5">JavaScript 22%</text>
<circle cx="324.6" cy="454" r="4" fill="#663399"/>
<text x="334.6" y="458" fill="#9aa4af" font-family="-apple-system,'Segoe UI',Helvetica,Arial,sans-serif" font-size="12.5">CSS 10%</text>
<circle cx="412.0" cy="454" r="4" fill="#844FBA"/>
<text x="422.0" y="458" fill="#9aa4af" font-family="-apple-system,'Segoe UI',Helvetica,Arial,sans-serif" font-size="12.5">HCL 3%</text>
<circle cx="492.2" cy="454" r="4" fill="#3572A5"/>
<text x="502.2" y="458" fill="#9aa4af" font-family="-apple-system,'Segoe UI',Helvetica,Arial,sans-serif" font-size="12.5">Python 1%</text>
<circle cx="594.0" cy="454" r="4" fill="#5886E1"/>
<text x="604.0" y="458" fill="#9aa4af" font-family="-apple-system,'Segoe UI',Helvetica,Arial,sans-serif" font-size="12.5">CUE 1%</text>
<circle cx="674.2" cy="454" r="4" fill="#6e7681"/>
<text x="684.2" y="458" fill="#9aa4af" font-family="-apple-system,'Segoe UI',Helvetica,Arial,sans-serif" font-size="12.5">Other 2%</text>
<rect x="24" y="492" width="992" height="190" rx="16" fill="url(#card)" stroke="url(#flow)" stroke-opacity="0.65" stroke-width="1.4"/>
<g transform="translate(44,508) scale(0.750)"><path fill="none" stroke="#E83C70" stroke-linecap="round" stroke-linejoin="round" stroke-width="2" d="M22 12h-2.48a2 2 0 0 0-1.93 1.46l-2.35 8.36a.25.25 0 0 1-.48 0L9.24 2.18a.25.25 0 0 0-.48 0l-2.35 8.36A2 2 0 0 1 4.49 12H2"/></g>
<text x="70" y="523" fill="#e6edf3" font-family="-apple-system,'Segoe UI',Helvetica,Arial,sans-serif" font-size="15" font-weight="600">Commit activity · last 12 months</text>
<text x="996" y="523" text-anchor="end" fill="#9aa4af" font-family="-apple-system,'Segoe UI',Helvetica,Arial,sans-serif" font-size="12.5">21,143 commits · peak 1,471/week · incl. archives</text>
<path d="M48.0,638.3 L66.5,638.2 L85.0,635.7 L103.5,638.2 L122.0,638.1 L140.5,637.9 L159.1,637.5 L177.6,639.2 L196.1,640.3 L214.6,640.3 L233.1,638.9 L251.6,637.7 L270.1,636.1 L288.6,637.1 L307.1,636.7 L325.6,637.3 L344.2,630.7 L362.7,637.1 L381.2,628.3 L399.7,616.7 L418.2,619.9 L436.7,631.8 L455.2,636.5 L473.7,633.6 L492.2,626.1 L510.7,626.5 L529.3,624.0 L547.8,613.9 L566.3,607.4 L584.8,617.7 L603.3,594.1 L621.8,596.6 L640.3,606.8 L658.8,601.2 L677.3,603.6 L695.8,592.9 L714.4,619.1 L732.9,600.8 L751.4,592.8 L769.9,560.6 L788.4,544.0 L806.9,585.4 L825.4,588.6 L843.9,612.2 L862.4,595.4 L880.9,580.1 L899.5,575.3 L918.0,569.4 L936.5,618.3 L955.0,622.5 L973.5,559.1 L992.0,598.9 L992.0,642 L48.0,642 Z" fill="url(#area)"/>
<path d="M48.0,638.3 L66.5,638.2 L85.0,635.7 L103.5,638.2 L122.0,638.1 L140.5,637.9 L159.1,637.5 L177.6,639.2 L196.1,640.3 L214.6,640.3 L233.1,638.9 L251.6,637.7 L270.1,636.1 L288.6,637.1 L307.1,636.7 L325.6,637.3 L344.2,630.7 L362.7,637.1 L381.2,628.3 L399.7,616.7 L418.2,619.9 L436.7,631.8 L455.2,636.5 L473.7,633.6 L492.2,626.1 L510.7,626.5 L529.3,624.0 L547.8,613.9 L566.3,607.4 L584.8,617.7 L603.3,594.1 L621.8,596.6 L640.3,606.8 L658.8,601.2 L677.3,603.6 L695.8,592.9 L714.4,619.1 L732.9,600.8 L751.4,592.8 L769.9,560.6 L788.4,544.0 L806.9,585.4 L825.4,588.6 L843.9,612.2 L862.4,595.4 L880.9,580.1 L899.5,575.3 L918.0,569.4 L936.5,618.3 L955.0,622.5 L973.5,559.1 L992.0,598.9" fill="none" stroke="url(#flow)" stroke-width="2.2" stroke-linejoin="round"/>
<line x1="48" y1="642" x2="992" y2="642" stroke="#9aa4af" opacity="0.25"/>
<text x="48" y="664" fill="#9aa4af" opacity="0.7" font-family="-apple-system,'Segoe UI',Helvetica,Arial,sans-serif" font-size="11.5">1 year ago</text>
<text x="992" y="664" text-anchor="end" fill="#9aa4af" opacity="0.7" font-family="-apple-system,'Segoe UI',Helvetica,Arial,sans-serif" font-size="11.5">now</text>
<rect x="24" y="702" width="992" height="190" rx="16" fill="url(#card)" stroke="url(#flow)" stroke-opacity="0.65" stroke-width="1.4"/>
<g transform="translate(44,718) scale(0.750)"><g fill="none" stroke="#E83C70" stroke-linecap="round" stroke-linejoin="round" stroke-width="2"><circle cx="12" cy="12" r="3"/><path d="M3 12h6m6 0h6"/></g></g>
<text x="70" y="733" fill="#e6edf3" font-family="-apple-system,'Segoe UI',Helvetica,Arial,sans-serif" font-size="15" font-weight="600">Commit history · all time</text>
<text x="996" y="733" text-anchor="end" fill="#9aa4af" font-family="-apple-system,'Segoe UI',Helvetica,Arial,sans-serif" font-size="12.5">27,622 commits since 2018</text>
<path d="M48.0,852.0 L57.3,852.0 L66.7,852.0 L76.0,852.0 L85.4,852.0 L94.7,852.0 L104.1,852.0 L113.4,852.0 L122.8,850.7 L132.1,852.0 L141.5,852.0 L150.8,852.0 L160.2,852.0 L169.5,852.0 L178.9,852.0 L188.2,852.0 L197.5,852.0 L206.9,852.0 L216.2,852.0 L225.6,852.0 L234.9,851.6 L244.3,852.0 L253.6,852.0 L263.0,851.8 L272.3,851.4 L281.7,851.2 L291.0,851.9 L300.4,851.9 L309.7,851.6 L319.0,851.7 L328.4,851.9 L337.7,851.3 L347.1,850.0 L356.4,849.6 L365.8,849.5 L375.1,850.8 L384.5,849.9 L393.8,850.3 L403.2,850.1 L412.5,850.9 L421.9,850.3 L431.2,850.7 L440.6,849.2 L449.9,851.0 L459.2,851.5 L468.6,851.3 L477.9,851.5 L487.3,851.4 L496.6,851.8 L506.0,852.0 L515.3,852.0 L524.7,851.8 L534.0,851.9 L543.4,852.0 L552.7,851.9 L562.1,851.9 L571.4,851.7 L580.8,851.5 L590.1,851.0 L599.4,844.5 L608.8,846.9 L618.1,848.8 L627.5,847.8 L636.8,849.8 L646.2,849.6 L655.5,850.7 L664.9,850.3 L674.2,849.7 L683.6,850.8 L692.9,850.7 L702.3,849.4 L711.6,847.1 L721.0,840.8 L730.3,845.5 L739.6,848.3 L749.0,849.6 L758.3,850.0 L767.7,849.2 L777.0,849.5 L786.4,850.3 L795.7,849.8 L805.1,840.4 L814.4,836.4 L823.8,834.0 L833.1,841.9 L842.5,844.3 L851.8,840.1 L861.1,838.1 L870.5,838.0 L879.8,847.1 L889.2,843.4 L898.5,844.6 L907.9,847.2 L917.2,844.8 L926.6,840.6 L935.9,824.8 L945.3,827.1 L954.6,802.2 L964.0,783.8 L973.3,770.6 L982.7,758.0 L992.0,754.0 L992.0,852 L48.0,852 Z" fill="url(#area)"/>
<path d="M48.0,852.0 L57.3,852.0 L66.7,852.0 L76.0,852.0 L85.4,852.0 L94.7,852.0 L104.1,852.0 L113.4,852.0 L122.8,850.7 L132.1,852.0 L141.5,852.0 L150.8,852.0 L160.2,852.0 L169.5,852.0 L178.9,852.0 L188.2,852.0 L197.5,852.0 L206.9,852.0 L216.2,852.0 L225.6,852.0 L234.9,851.6 L244.3,852.0 L253.6,852.0 L263.0,851.8 L272.3,851.4 L281.7,851.2 L291.0,851.9 L300.4,851.9 L309.7,851.6 L319.0,851.7 L328.4,851.9 L337.7,851.3 L347.1,850.0 L356.4,849.6 L365.8,849.5 L375.1,850.8 L384.5,849.9 L393.8,850.3 L403.2,850.1 L412.5,850.9 L421.9,850.3 L431.2,850.7 L440.6,849.2 L449.9,851.0 L459.2,851.5 L468.6,851.3 L477.9,851.5 L487.3,851.4 L496.6,851.8 L506.0,852.0 L515.3,852.0 L524.7,851.8 L534.0,851.9 L543.4,852.0 L552.7,851.9 L562.1,851.9 L571.4,851.7 L580.8,851.5 L590.1,851.0 L599.4,844.5 L608.8,846.9 L618.1,848.8 L627.5,847.8 L636.8,849.8 L646.2,849.6 L655.5,850.7 L664.9,850.3 L674.2,849.7 L683.6,850.8 L692.9,850.7 L702.3,849.4 L711.6,847.1 L721.0,840.8 L730.3,845.5 L739.6,848.3 L749.0,849.6 L758.3,850.0 L767.7,849.2 L777.0,849.5 L786.4,850.3 L795.7,849.8 L805.1,840.4 L814.4,836.4 L823.8,834.0 L833.1,841.9 L842.5,844.3 L851.8,840.1 L861.1,838.1 L870.5,838.0 L879.8,847.1 L889.2,843.4 L898.5,844.6 L907.9,847.2 L917.2,844.8 L926.6,840.6 L935.9,824.8 L945.3,827.1 L954.6,802.2 L964.0,783.8 L973.3,770.6 L982.7,758.0 L992.0,754.0" fill="none" stroke="url(#flow)" stroke-width="2.2" stroke-linejoin="round"/>
<path d="M48.0,852.0 L57.3,852.0 L66.7,852.0 L76.0,852.0 L85.4,852.0 L94.7,852.0 L104.1,852.0 L113.4,852.0 L122.8,850.7 L132.1,852.0 L141.5,852.0 L150.8,852.0 L160.2,852.0 L169.5,852.0 L178.9,852.0 L188.2,852.0 L197.5,852.0 L206.9,852.0 L216.2,852.0 L225.6,852.0 L234.9,851.6 L244.3,852.0 L253.6,852.0 L263.0,851.8 L272.3,851.4 L281.7,851.2 L291.0,851.9 L300.4,851.9 L309.7,851.6 L319.0,851.7 L328.4,851.9 L337.7,851.3 L347.1,850.0 L356.4,849.6 L365.8,849.5 L375.1,850.8 L384.5,849.9 L393.8,850.3 L403.2,850.1 L412.5,850.9 L421.9,850.3 L431.2,850.7 L440.6,849.2 L449.9,851.0 L459.2,851.5 L468.6,851.3 L477.9,851.5 L487.3,851.4 L496.6,851.8 L506.0,852.0 L515.3,852.0 L524.7,851.8 L534.0,851.9 L543.4,852.0 L552.7,851.9 L562.1,851.9 L571.4,851.7 L580.8,851.5 L590.1,851.0 L599.4,844.5 L608.8,846.9 L618.1,848.8 L627.5,847.8 L636.8,849.8 L646.2,849.6 L655.5,850.7 L664.9,850.3 L674.2,849.7 L683.6,850.8 L692.9,850.7 L702.3,849.4 L711.6,847.1 L721.0,840.8 L730.3,845.5 L739.6,848.3 L749.0,849.6 L758.3,850.0 L767.7,849.2 L777.0,849.5 L786.4,850.3 L795.7,850.0 L805.1,841.7 L814.4,837.4 L823.8,835.5 L833.1,842.3 L842.5,844.3 L851.8,840.1 L861.1,838.1 L870.5,838.0 L879.8,847.1 L889.2,843.4 L898.5,844.6 L907.9,847.2 L917.2,844.8 L926.6,840.6 L935.9,846.2 L945.3,847.9 L954.6,846.5 L964.0,850.9 L973.3,852.0 L982.7,852.0 L992.0,852.0" fill="none" stroke="#9aa4af" stroke-width="1.8" stroke-dasharray="5 4" stroke-linejoin="round" opacity="0.85"/>
<circle cx="54" cy="866" r="4" fill="url(#flow)"/><text x="64" y="870" fill="#9aa4af" font-family="-apple-system,'Segoe UI',Helvetica,Arial,sans-serif" font-size="12.5">all commits</text>
<line x1="164" y1="866" x2="184" y2="866" stroke="#9aa4af" stroke-width="1.8" stroke-dasharray="5 4"/><text x="190" y="870" fill="#9aa4af" font-family="-apple-system,'Segoe UI',Helvetica,Arial,sans-serif" font-size="12.5">archived repos</text>
<line x1="48" y1="852" x2="992" y2="852" stroke="#9aa4af" opacity="0.25"/>
<text x="48.0" y="884" fill="#9aa4af" opacity="0.7" font-family="-apple-system,'Segoe UI',Helvetica,Arial,sans-serif" font-size="11.5">2018</text><text x="160.2" y="884" fill="#9aa4af" opacity="0.7" font-family="-apple-system,'Segoe UI',Helvetica,Arial,sans-serif" font-size="11.5">2019</text><text x="272.3" y="884" fill="#9aa4af" opacity="0.7" font-family="-apple-system,'Segoe UI',Helvetica,Arial,sans-serif" font-size="11.5">2020</text><text x="384.5" y="884" fill="#9aa4af" opacity="0.7" font-family="-apple-system,'Segoe UI',Helvetica,Arial,sans-serif" font-size="11.5">2021</text><text x="496.6" y="884" fill="#9aa4af" opacity="0.7" font-family="-apple-system,'Segoe UI',Helvetica,Arial,sans-serif" font-size="11.5">2022</text><text x="608.8" y="884" fill="#9aa4af" opacity="0.7" font-family="-apple-system,'Segoe UI',Helvetica,Arial,sans-serif" font-size="11.5">2023</text><text x="721.0" y="884" fill="#9aa4af" opacity="0.7" font-family="-apple-system,'Segoe UI',Helvetica,Arial,sans-serif" font-size="11.5">2024</text><text x="833.1" y="884" fill="#9aa4af" opacity="0.7" font-family="-apple-system,'Segoe UI',Helvetica,Arial,sans-serif" font-size="11.5">2025</text><text x="945.3" y="884" fill="#9aa4af" opacity="0.7" font-family="-apple-system,'Segoe UI',Helvetica,Arial,sans-serif" font-size="11.5">2026</text>
<rect x="24" y="912" width="992" height="190" rx="16" fill="url(#card)" stroke="url(#flow)" stroke-opacity="0.65" stroke-width="1.4"/>
<g transform="translate(44,928) scale(0.750)"><g fill="none" stroke="#E83C70" stroke-linecap="round" stroke-linejoin="round" stroke-width="2"><path d="M18 21a8 8 0 0 0-16 0"/><circle cx="10" cy="8" r="5"/><path d="M22 20c0-3.37-2-6.5-4-8a5 5 0 0 0-.45-8.3"/></g></g>
<text x="70" y="943" fill="#e6edf3" font-family="-apple-system,'Segoe UI',Helvetica,Arial,sans-serif" font-size="15" font-weight="600">Output vs headcount · fewer humans, more shipped</text>
<text x="996" y="943" text-anchor="end" fill="#9aa4af" font-family="-apple-system,'Segoe UI',Helvetica,Arial,sans-serif" font-size="12.5">peak team 25 humans · now 6 + AI agents</text>
<path d="M48.0,1050.0 L57.3,1050.0 L66.7,1050.0 L76.0,1050.0 L85.4,1050.0 L94.7,1050.0 L104.1,1050.0 L113.4,1050.0 L122.8,1048.8 L132.1,1050.0 L141.5,1050.0 L150.8,1050.0 L160.2,1050.0 L169.5,1050.0 L178.9,1050.0 L188.2,1050.0 L197.5,1050.0 L206.9,1050.0 L216.2,1050.0 L225.6,1050.0 L234.9,1049.7 L244.3,1050.0 L253.6,1050.0 L263.0,1049.9 L272.3,1049.5 L281.7,1049.3 L291.0,1049.9 L300.4,1049.9 L309.7,1049.7 L319.0,1049.7 L328.4,1049.9 L337.7,1049.4 L347.1,1048.2 L356.4,1047.9 L365.8,1047.8 L375.1,1048.9 L384.5,1048.2 L393.8,1048.5 L403.2,1048.3 L412.5,1049.0 L421.9,1048.5 L431.2,1048.9 L440.6,1047.5 L449.9,1049.1 L459.2,1049.6 L468.6,1049.4 L477.9,1049.6 L487.3,1049.5 L496.6,1049.8 L506.0,1050.0 L515.3,1050.0 L524.7,1049.8 L534.0,1050.0 L543.4,1050.0 L552.7,1050.0 L562.1,1050.0 L571.4,1049.7 L580.8,1049.6 L590.1,1049.1 L599.4,1043.4 L608.8,1045.5 L618.1,1047.2 L627.5,1046.3 L636.8,1048.1 L646.2,1047.9 L655.5,1048.9 L664.9,1048.5 L674.2,1047.9 L683.6,1049.0 L692.9,1048.9 L702.3,1047.7 L711.6,1045.7 L721.0,1040.1 L730.3,1044.3 L739.6,1046.8 L749.0,1047.9 L758.3,1048.2 L767.7,1047.6 L777.0,1047.8 L786.4,1048.5 L795.7,1048.0 L805.1,1039.8 L814.4,1036.3 L823.8,1034.2 L833.1,1041.2 L842.5,1043.2 L851.8,1039.6 L861.1,1037.8 L870.5,1037.7 L879.8,1045.7 L889.2,1042.5 L898.5,1043.5 L907.9,1045.8 L917.2,1043.6 L926.6,1040.0 L935.9,1026.1 L945.3,1028.2 L954.6,1006.3 L964.0,990.1 L973.3,978.6 L982.7,967.5 L992.0,964.0 L992.0,1050 L48.0,1050 Z" fill="#9D4EDD" opacity="0.12"/>
<path d="M48.0,1050.0 L57.3,1050.0 L66.7,1050.0 L76.0,1050.0 L85.4,1050.0 L94.7,1050.0 L104.1,1050.0 L113.4,1050.0 L122.8,1048.8 L132.1,1050.0 L141.5,1050.0 L150.8,1050.0 L160.2,1050.0 L169.5,1050.0 L178.9,1050.0 L188.2,1050.0 L197.5,1050.0 L206.9,1050.0 L216.2,1050.0 L225.6,1050.0 L234.9,1049.7 L244.3,1050.0 L253.6,1050.0 L263.0,1049.9 L272.3,1049.5 L281.7,1049.3 L291.0,1049.9 L300.4,1049.9 L309.7,1049.7 L319.0,1049.7 L328.4,1049.9 L337.7,1049.4 L347.1,1048.2 L356.4,1047.9 L365.8,1047.8 L375.1,1048.9 L384.5,1048.2 L393.8,1048.5 L403.2,1048.3 L412.5,1049.0 L421.9,1048.5 L431.2,1048.9 L440.6,1047.5 L449.9,1049.1 L459.2,1049.6 L468.6,1049.4 L477.9,1049.6 L487.3,1049.5 L496.6,1049.8 L506.0,1050.0 L515.3,1050.0 L524.7,1049.8 L534.0,1050.0 L543.4,1050.0 L552.7,1050.0 L562.1,1050.0 L571.4,1049.7 L580.8,1049.6 L590.1,1049.1 L599.4,1043.4 L608.8,1045.5 L618.1,1047.2 L627.5,1046.3 L636.8,1048.1 L646.2,1047.9 L655.5,1048.9 L664.9,1048.5 L674.2,1047.9 L683.6,1049.0 L692.9,1048.9 L702.3,1047.7 L711.6,1045.7 L721.0,1040.1 L730.3,1044.3 L739.6,1046.8 L749.0,1047.9 L758.3,1048.2 L767.7,1047.6 L777.0,1047.8 L786.4,1048.5 L795.7,1048.0 L805.1,1039.8 L814.4,1036.3 L823.8,1034.2 L833.1,1041.2 L842.5,1043.2 L851.8,1039.6 L861.1,1037.8 L870.5,1037.7 L879.8,1045.7 L889.2,1042.5 L898.5,1043.5 L907.9,1045.8 L917.2,1043.6 L926.6,1040.0 L935.9,1026.1 L945.3,1028.2 L954.6,1006.3 L964.0,990.1 L973.3,978.6 L982.7,967.5 L992.0,964.0" fill="none" stroke="#9D4EDD" stroke-width="2.2" stroke-linejoin="round"/>
<path d="M48.0,1050.0 L57.3,1050.0 L66.7,1050.0 L76.0,1050.0 L85.4,1050.0 L94.7,1050.0 L104.1,1050.0 L113.4,1050.0 L122.8,1036.2 L132.1,1050.0 L141.5,1050.0 L150.8,1050.0 L160.2,1050.0 L169.5,1050.0 L178.9,1050.0 L188.2,1050.0 L197.5,1050.0 L206.9,1050.0 L216.2,1046.6 L225.6,1046.6 L234.9,1043.1 L244.3,1050.0 L253.6,1046.6 L263.0,1046.6 L272.3,1043.1 L281.7,1046.6 L291.0,1046.6 L300.4,1046.6 L309.7,1046.6 L319.0,1046.6 L328.4,1046.6 L337.7,1032.8 L347.1,1022.5 L356.4,1032.8 L365.8,1029.4 L375.1,1032.8 L384.5,1029.4 L393.8,1032.8 L403.2,1036.2 L412.5,1039.7 L421.9,1036.2 L431.2,1029.4 L440.6,1029.4 L449.9,1039.7 L459.2,1036.2 L468.6,1039.7 L477.9,1039.7 L487.3,1039.7 L496.6,1046.6 L506.0,1050.0 L515.3,1050.0 L524.7,1043.1 L534.0,1046.6 L543.4,1046.6 L552.7,1046.6 L562.1,1046.6 L571.4,1046.6 L580.8,1043.1 L590.1,1032.8 L599.4,1015.6 L608.8,1012.2 L618.1,1029.4 L627.5,1015.6 L636.8,1022.5 L646.2,1029.4 L655.5,1036.2 L664.9,1032.8 L674.2,1032.8 L683.6,1029.4 L692.9,1032.8 L702.3,1022.5 L711.6,1025.9 L721.0,1022.5 L730.3,1025.9 L739.6,1029.4 L749.0,1029.4 L758.3,1032.8 L767.7,1039.7 L777.0,1039.7 L786.4,1029.4 L795.7,1019.0 L805.1,967.4 L814.4,974.3 L823.8,964.0 L833.1,991.5 L842.5,1008.7 L851.8,991.5 L861.1,1005.3 L870.5,1008.7 L879.8,1012.2 L889.2,1015.6 L898.5,1015.6 L907.9,1022.5 L917.2,1029.4 L926.6,1029.4 L935.9,998.4 L945.3,1019.0 L954.6,1022.5 L964.0,1029.4 L973.3,1015.6 L982.7,1025.9 L992.0,1029.4" fill="none" stroke="#E83C70" stroke-width="2.2" stroke-linejoin="round"/>
<line x1="48" y1="1050" x2="992" y2="1050" stroke="#9aa4af" opacity="0.25"/>
<circle cx="54" cy="1070" r="4" fill="#E83C70"/><text x="64" y="1074" fill="#9aa4af" font-family="-apple-system,'Segoe UI',Helvetica,Arial,sans-serif" font-size="12.5">active human committers</text>
<circle cx="234" cy="1070" r="4" fill="#9D4EDD"/><text x="244" y="1074" fill="#9aa4af" font-family="-apple-system,'Segoe UI',Helvetica,Arial,sans-serif" font-size="12.5">monthly commits</text>
<text x="48.0" y="1090" fill="#9aa4af" opacity="0.7" font-family="-apple-system,'Segoe UI',Helvetica,Arial,sans-serif" font-size="11.5">2018</text><text x="160.2" y="1090" fill="#9aa4af" opacity="0.7" font-family="-apple-system,'Segoe UI',Helvetica,Arial,sans-serif" font-size="11.5">2019</text><text x="272.3" y="1090" fill="#9aa4af" opacity="0.7" font-family="-apple-system,'Segoe UI',Helvetica,Arial,sans-serif" font-size="11.5">2020</text><text x="384.5" y="1090" fill="#9aa4af" opacity="0.7" font-family="-apple-system,'Segoe UI',Helvetica,Arial,sans-serif" font-size="11.5">2021</text><text x="496.6" y="1090" fill="#9aa4af" opacity="0.7" font-family="-apple-system,'Segoe UI',Helvetica,Arial,sans-serif" font-size="11.5">2022</text><text x="608.8" y="1090" fill="#9aa4af" opacity="0.7" font-family="-apple-system,'Segoe UI',Helvetica,Arial,sans-serif" font-size="11.5">2023</text><text x="721.0" y="1090" fill="#9aa4af" opacity="0.7" font-family="-apple-system,'Segoe UI',Helvetica,Arial,sans-serif" font-size="11.5">2024</text><text x="833.1" y="1090" fill="#9aa4af" opacity="0.7" font-family="-apple-system,'Segoe UI',Helvetica,Arial,sans-serif" font-size="11.5">2025</text><text x="945.3" y="1090" fill="#9aa4af" opacity="0.7" font-family="-apple-system,'Segoe UI',Helvetica,Arial,sans-serif" font-size="11.5">2026</text>
</svg>