<svg xmlns="http://www.w3.org/2000/svg" width="1040" height="210" viewBox="0 0 1040 210">
<defs>
<linearGradient id="flow" x1="0" y1="0" x2="1040" y2="0" gradientUnits="userSpaceOnUse">
  <stop offset="0" stop-color="#E83C70"/><stop offset="1" stop-color="#9D4EDD"/>
</linearGradient>
<linearGradient id="card" x1="0" y1="0" x2="0" y2="1">
  <stop offset="0" stop-color="#221527"/><stop offset="1" stop-color="#140d18"/>
</linearGradient>
<linearGradient id="title" x1="0" y1="0" x2="1" y2="0">
  <stop offset="0" stop-color="#E83C70"/><stop offset="1" stop-color="#9D4EDD"/>
</linearGradient>
</defs>
<g transform="translate(348.0,14) scale(0.83)"><path fill="none" stroke="url(#title)" stroke-linecap="round" stroke-linejoin="round" stroke-width="2" d="M4 14a1 1 0 0 1-.78-1.63l9.9-10.2a.5.5 0 0 1 .86.46l-1.92 6.02A1 1 0 0 0 13 10h7a1 1 0 0 1 .78 1.63l-9.9 10.2a.5.5 0 0 1-.86-.46l1.92-6.02A1 1 0 0 0 11 14z"/></g>
<text x="534.0" y="30" text-anchor="middle" fill="url(#title)" font-family="-apple-system,'Segoe UI',Helvetica,Arial,sans-serif" font-size="17" font-weight="600">one platform · real-time · end to end</text>
<rect x="24.0" y="78" width="116" height="108" rx="16" fill="url(#card)" stroke="url(#flow)" stroke-opacity="0.65" stroke-width="1.4"/>
<g transform="translate(68.0,94) scale(1.167)"><path fill="none" stroke="#E83C70" stroke-linecap="round" stroke-linejoin="round" stroke-width="2" d="M2 9a3 3 0 0 1 0 6v2a2 2 0 0 0 2 2h16a2 2 0 0 0 2-2v-2a3 3 0 0 1 0-6V7a2 2 0 0 0-2-2H4a2 2 0 0 0-2 2Zm11-4v2m0 10v2m0-8v2"/></g>
<text x="82.0" y="146" text-anchor="middle" fill="#e6edf3" font-family="-apple-system,'Segoe UI',Helvetica,Arial,sans-serif" font-size="13.5" font-weight="600">ticket</text>
<text x="82.0" y="165" text-anchor="middle" fill="#9aa4af" font-family="-apple-system,'Segoe UI',Helvetica,Arial,sans-serif" font-size="12.5">sold</text>
<path d="M145.0 132.0 L165.0 132.0 M159.0 127.5 L165.0 132.0 L159.0 136.5" fill="none" stroke="url(#flow)" stroke-width="2.2" stroke-linecap="round" stroke-linejoin="round"/>
<rect x="170.0" y="78" width="116" height="108" rx="16" fill="url(#card)" stroke="url(#flow)" stroke-opacity="0.65" stroke-width="1.4"/>
<g transform="translate(214.0,94) scale(1.167)"><path fill="none" stroke="#E83C70" stroke-linecap="round" stroke-linejoin="round" stroke-width="2" d="M11 20H2m9-15.438v16.157a1 1 0 0 0 1.242.97L19 20V5.562a2 2 0 0 0-1.515-1.94l-4-1A2 2 0 0 0 11 4.561zM11 4H8a2 2 0 0 0-2 2v14m8-8h.01M22 20h-3"/></g>
<text x="228.0" y="146" text-anchor="middle" fill="#e6edf3" font-family="-apple-system,'Segoe UI',Helvetica,Arial,sans-serif" font-size="13.5" font-weight="600">gate</text>
<text x="228.0" y="165" text-anchor="middle" fill="#9aa4af" font-family="-apple-system,'Segoe UI',Helvetica,Arial,sans-serif" font-size="12.5">scanned</text>
<path d="M291.0 132.0 L311.0 132.0 M305.0 127.5 L311.0 132.0 L305.0 136.5" fill="none" stroke="url(#flow)" stroke-width="2.2" stroke-linecap="round" stroke-linejoin="round"/>
<rect x="316.0" y="78" width="116" height="108" rx="16" fill="url(#card)" stroke="url(#flow)" stroke-opacity="0.65" stroke-width="1.4"/>
<g transform="translate(360.0,94) scale(1.167)"><path fill="none" stroke="#E83C70" stroke-linecap="round" stroke-linejoin="round" stroke-width="2" d="M6 8.32a7.43 7.43 0 0 1 0 7.36m3.46-9.47a11.76 11.76 0 0 1 0 11.58M12.91 4.1a15.91 15.91 0 0 1 .01 15.8M16.37 2a20.16 20.16 0 0 1 0 20"/></g>
<text x="374.0" y="146" text-anchor="middle" fill="#e6edf3" font-family="-apple-system,'Segoe UI',Helvetica,Arial,sans-serif" font-size="13.5" font-weight="600">card</text>
<text x="374.0" y="165" text-anchor="middle" fill="#9aa4af" font-family="-apple-system,'Segoe UI',Helvetica,Arial,sans-serif" font-size="12.5">connected</text>
<path d="M437.0 132.0 L457.0 132.0 M451.0 127.5 L457.0 132.0 L451.0 136.5" fill="none" stroke="url(#flow)" stroke-width="2.2" stroke-linecap="round" stroke-linejoin="round"/>
<rect x="462.0" y="78" width="116" height="108" rx="16" fill="url(#card)" stroke="url(#flow)" stroke-opacity="0.65" stroke-width="1.4"/>
<g transform="translate(506.0,94) scale(1.167)"><g fill="none" stroke="#E83C70" stroke-linecap="round" stroke-linejoin="round" stroke-width="2"><path d="M19 7V4a1 1 0 0 0-1-1H5a2 2 0 0 0 0 4h15a1 1 0 0 1 1 1v4h-3a2 2 0 0 0 0 4h3a1 1 0 0 0 1-1v-2a1 1 0 0 0-1-1"/><path d="M3 5v14a2 2 0 0 0 2 2h15a1 1 0 0 0 1-1v-4"/></g></g>
<text x="520.0" y="146" text-anchor="middle" fill="#e6edf3" font-family="-apple-system,'Segoe UI',Helvetica,Arial,sans-serif" font-size="13.5" font-weight="600">wallet</text>
<text x="520.0" y="165" text-anchor="middle" fill="#9aa4af" font-family="-apple-system,'Segoe UI',Helvetica,Arial,sans-serif" font-size="12.5">topped up</text>
<path d="M583.0 132.0 L603.0 132.0 M597.0 127.5 L603.0 132.0 L597.0 136.5" fill="none" stroke="url(#flow)" stroke-width="2.2" stroke-linecap="round" stroke-linejoin="round"/>
<rect x="608.0" y="78" width="116" height="108" rx="16" fill="url(#card)" stroke="url(#flow)" stroke-opacity="0.65" stroke-width="1.4"/>
<g transform="translate(652.0,94) scale(1.167)"><g fill="none" stroke="#E83C70" stroke-linecap="round" stroke-linejoin="round" stroke-width="2"><path d="M16 10a4 4 0 0 1-8 0M3.103 6.034h17.794"/><path d="M3.4 5.467a2 2 0 0 0-.4 1.2V20a2 2 0 0 0 2 2h14a2 2 0 0 0 2-2V6.667a2 2 0 0 0-.4-1.2l-2-2.667A2 2 0 0 0 17 2H7a2 2 0 0 0-1.6.8z"/></g></g>
<text x="666.0" y="146" text-anchor="middle" fill="#e6edf3" font-family="-apple-system,'Segoe UI',Helvetica,Arial,sans-serif" font-size="13.5" font-weight="600">food, drinks</text>
<text x="666.0" y="165" text-anchor="middle" fill="#9aa4af" font-family="-apple-system,'Segoe UI',Helvetica,Arial,sans-serif" font-size="12.5">&amp; merch</text>
<path d="M729.0 132.0 L749.0 132.0 M743.0 127.5 L749.0 132.0 L743.0 136.5" fill="none" stroke="url(#flow)" stroke-width="2.2" stroke-linecap="round" stroke-linejoin="round"/>
<rect x="754.0" y="78" width="116" height="108" rx="16" fill="url(#card)" stroke="url(#flow)" stroke-opacity="0.65" stroke-width="1.4"/>
<g transform="translate(798.0,94) scale(1.167)"><g fill="none" stroke="#E83C70" stroke-linecap="round" stroke-linejoin="round" stroke-width="2"><path d="m11 17l2 2a1 1 0 1 0 3-3"/><path d="m14 14l2.5 2.5a1 1 0 1 0 3-3l-3.88-3.88a3 3 0 0 0-4.24 0l-.88.88a1 1 0 1 1-3-3l2.81-2.81a5.79 5.79 0 0 1 7.06-.87l.47.28a2 2 0 0 0 1.42.25L21 4"/><path d="m21 3l1 11h-2M3 3L2 14l6.5 6.5a1 1 0 1 0 3-3M3 4h8"/></g></g>
<text x="812.0" y="146" text-anchor="middle" fill="#e6edf3" font-family="-apple-system,'Segoe UI',Helvetica,Arial,sans-serif" font-size="13.5" font-weight="600">vendor</text>
<text x="812.0" y="165" text-anchor="middle" fill="#9aa4af" font-family="-apple-system,'Segoe UI',Helvetica,Arial,sans-serif" font-size="12.5">settled</text>
<path d="M875.0 132.0 L895.0 132.0 M889.0 127.5 L895.0 132.0 L889.0 136.5" fill="none" stroke="url(#flow)" stroke-width="2.2" stroke-linecap="round" stroke-linejoin="round"/>
<rect x="900.0" y="78" width="116" height="108" rx="16" fill="url(#card)" stroke="url(#flow)" stroke-opacity="0.65" stroke-width="1.4"/>
<g transform="translate(944.0,94) scale(1.167)"><g fill="none" stroke="#E83C70" stroke-linecap="round" stroke-linejoin="round" stroke-width="2"><rect width="20" height="12" x="2" y="6" rx="2"/><circle cx="12" cy="12" r="2"/><path d="M6 12h.01M18 12h.01"/></g></g>
<text x="958.0" y="146" text-anchor="middle" fill="#e6edf3" font-family="-apple-system,'Segoe UI',Helvetica,Arial,sans-serif" font-size="13.5" font-weight="600">organizer</text>
<text x="958.0" y="165" text-anchor="middle" fill="#9aa4af" font-family="-apple-system,'Segoe UI',Helvetica,Arial,sans-serif" font-size="12.5">paid out</text>
</svg>